<svg xmlns="http://www.w3.org/2000/svg" xmlns:xlink="http://www.w3.org/1999/xlink" width="48" zoomAndPan="magnify" viewBox="0 0 36 36.000001" height="48" preserveAspectRatio="xMidYMid meet" version="1.2"><defs><clipPath id="db47d2d91b"><path d="M 0.488281 0 L 35.511719 0 L 35.511719 35.027344 L 0.488281 35.027344 Z M 0.488281 0 "/></clipPath></defs><g id="4baf7cb76f"><g clip-rule="nonzero" clip-path="url(#db47d2d91b)"><path style=" stroke:none;fill-rule:nonzero;fill:#ffffff;fill-opacity:1;" d="M 0.488281 0 L 35.511719 0 L 35.511719 35.027344 L 0.488281 35.027344 Z M 0.488281 0 "/><path style=" stroke:none;fill-rule:nonzero;fill:#ffffff;fill-opacity:1;" d="M 0.488281 0 L 35.511719 0 L 35.511719 35.027344 L 0.488281 35.027344 Z M 0.488281 0 "/></g><path style=" stroke:none;fill-rule:nonzero;fill:#95bf46;fill-opacity:1;" d="M 29.488281 6.878906 C 29.464844 6.703125 29.3125 6.605469 29.183594 6.59375 C 29.058594 6.585938 26.378906 6.386719 26.378906 6.386719 C 26.378906 6.386719 24.519531 4.539062 24.316406 4.335938 C 24.109375 4.132812 23.710938 4.191406 23.558594 4.238281 C 23.535156 4.246094 23.152344 4.363281 22.515625 4.558594 C 21.894531 2.773438 20.796875 1.128906 18.867188 1.128906 C 18.816406 1.128906 18.761719 1.132812 18.707031 1.132812 C 18.15625 0.410156 17.476562 0.09375 16.890625 0.09375 C 12.394531 0.09375 10.25 5.710938 9.574219 8.566406 C 7.828125 9.109375 6.589844 9.492188 6.429688 9.542969 C 5.457031 9.847656 5.425781 9.878906 5.296875 10.796875 C 5.199219 11.492188 2.648438 31.214844 2.648438 31.214844 L 22.523438 34.941406 L 33.292969 32.609375 C 33.292969 32.609375 29.511719 7.054688 29.488281 6.878906 Z M 21.417969 4.898438 L 19.734375 5.421875 C 19.738281 5.300781 19.738281 5.183594 19.738281 5.058594 C 19.738281 3.945312 19.582031 3.050781 19.335938 2.34375 C 20.328125 2.46875 20.992188 3.597656 21.417969 4.898438 Z M 18.101562 2.5625 C 18.378906 3.253906 18.558594 4.25 18.558594 5.589844 C 18.558594 5.660156 18.558594 5.722656 18.558594 5.785156 C 17.464844 6.125 16.273438 6.492188 15.085938 6.859375 C 15.753906 4.28125 17.007812 3.03125 18.101562 2.5625 Z M 16.765625 1.300781 C 16.960938 1.300781 17.15625 1.363281 17.34375 1.492188 C 15.902344 2.171875 14.359375 3.878906 13.707031 7.285156 L 10.960938 8.136719 C 11.726562 5.539062 13.539062 1.300781 16.765625 1.300781 Z M 16.765625 1.300781 "/><path style=" stroke:none;fill-rule:nonzero;fill:#5e8e3e;fill-opacity:1;" d="M 29.183594 6.59375 C 29.058594 6.585938 26.378906 6.386719 26.378906 6.386719 C 26.378906 6.386719 24.519531 4.539062 24.316406 4.335938 C 24.238281 4.257812 24.136719 4.21875 24.027344 4.203125 L 22.523438 34.941406 L 33.292969 32.609375 C 33.292969 32.609375 29.511719 7.054688 29.488281 6.878906 C 29.464844 6.703125 29.3125 6.605469 29.183594 6.59375 "/><path style=" stroke:none;fill-rule:nonzero;fill:#ffffff;fill-opacity:1;" d="M 18.867188 12.546875 L 17.539062 16.496094 C 17.539062 16.496094 16.378906 15.875 14.953125 15.875 C 12.859375 15.875 12.753906 17.1875 12.753906 17.515625 C 12.753906 19.320312 17.457031 20.011719 17.457031 24.238281 C 17.457031 27.5625 15.347656 29.703125 12.507812 29.703125 C 9.09375 29.703125 7.351562 27.578125 7.351562 27.578125 L 8.265625 24.5625 C 8.265625 24.5625 10.058594 26.101562 11.570312 26.101562 C 12.558594 26.101562 12.960938 25.320312 12.960938 24.753906 C 12.960938 22.398438 9.105469 22.296875 9.105469 18.429688 C 9.105469 15.175781 11.441406 12.023438 16.15625 12.023438 C 17.972656 12.023438 18.867188 12.546875 18.867188 12.546875 "/></g></svg>