<svg xmlns="http://www.w3.org/2000/svg" xmlns:xlink="http://www.w3.org/1999/xlink" width="48" zoomAndPan="magnify" viewBox="0 0 36 36.000001" height="48" preserveAspectRatio="xMidYMid meet" version="1.2"><defs><clipPath id="7645ff3e2b"><path d="M 0.488281 0 L 35.511719 0 L 35.511719 35.027344 L 0.488281 35.027344 Z M 0.488281 0 "/></clipPath><clipPath id="19dc01ea86"><path d="M 28 13 L 34.699219 13 L 34.699219 21 L 28 21 Z M 28 13 "/></clipPath><clipPath id="0c7289af73"><path d="M 21 26 L 32 26 L 32 33.4375 L 21 33.4375 Z M 21 26 "/></clipPath><clipPath id="72c3c624e3"><path d="M 15 1.332031 L 24 1.332031 L 24 9 L 15 9 Z M 15 1.332031 "/></clipPath><clipPath id="2b2a97ea25"><path d="M 1.132812 13 L 9 13 L 9 21 L 1.132812 21 Z M 1.132812 13 "/></clipPath><clipPath id="61860b34cc"><path d="M 7 26 L 14 26 L 14 33.4375 L 7 33.4375 Z M 7 26 "/></clipPath></defs><g id="77bf7ba8ce"><g clip-rule="nonzero" clip-path="url(#7645ff3e2b)"><path style=" stroke:none;fill-rule:nonzero;fill:#ffffff;fill-opacity:1;" d="M 0.488281 0 L 35.511719 0 L 35.511719 35.027344 L 0.488281 35.027344 Z M 0.488281 0 "/><path style=" stroke:none;fill-rule:nonzero;fill:#ffffff;fill-opacity:1;" d="M 0.488281 0 L 35.511719 0 L 35.511719 35.027344 L 0.488281 35.027344 Z M 0.488281 0 "/></g><g style="fill:#000000;fill-opacity:1;"><g transform="translate(17.458403, 18.60811)"><path style="stroke:none" d="M 0.53125 0.015625 C 0.46875 0.015625 0.410156 0.00390625 0.359375 -0.015625 C 0.304688 -0.046875 0.265625 -0.0820312 0.234375 -0.125 C 0.210938 -0.175781 0.203125 -0.234375 0.203125 -0.296875 C 0.203125 -0.359375 0.210938 -0.410156 0.234375 -0.453125 C 0.265625 -0.503906 0.304688 -0.546875 0.359375 -0.578125 C 0.410156 -0.609375 0.46875 -0.625 0.53125 -0.625 C 0.601562 -0.625 0.664062 -0.609375 0.71875 -0.578125 C 0.769531 -0.546875 0.804688 -0.503906 0.828125 -0.453125 C 0.859375 -0.410156 0.875 -0.359375 0.875 -0.296875 C 0.875 -0.203125 0.84375 -0.125 0.78125 -0.0625 C 0.71875 -0.0078125 0.632812 0.015625 0.53125 0.015625 Z M 0.53125 0.015625 "/></g></g><path style=" stroke:none;fill-rule:nonzero;fill:#000000;fill-opacity:1;" d="M 23.320312 4.550781 C 23.320312 4.734375 23.472656 4.886719 23.65625 4.886719 L 24.765625 4.886719 C 24.953125 4.886719 25.101562 4.734375 25.101562 4.550781 C 25.101562 4.367188 24.953125 4.214844 24.765625 4.214844 L 23.65625 4.214844 C 23.472656 4.214844 23.320312 4.367188 23.320312 4.550781 Z M 23.320312 4.550781 "/><path style=" stroke:none;fill-rule:nonzero;fill:#000000;fill-opacity:1;" d="M 23.546875 4.121094 C 23.617188 4.121094 23.6875 4.097656 23.75 4.050781 L 24.632812 3.382812 C 24.78125 3.273438 24.808594 3.0625 24.699219 2.914062 C 24.585938 2.765625 24.375 2.738281 24.226562 2.851562 L 23.34375 3.515625 C 23.195312 3.628906 23.164062 3.839844 23.277344 3.988281 C 23.34375 4.074219 23.445312 4.121094 23.546875 4.121094 Z M 23.546875 4.121094 "/><path style=" stroke:none;fill-rule:nonzero;fill:#000000;fill-opacity:1;" d="M 24.632812 5.71875 L 23.75 5.050781 C 23.601562 4.9375 23.390625 4.96875 23.277344 5.113281 C 23.164062 5.261719 23.195312 5.472656 23.34375 5.585938 L 24.226562 6.25 C 24.289062 6.296875 24.359375 6.320312 24.429688 6.320312 C 24.53125 6.320312 24.632812 6.273438 24.699219 6.1875 C 24.808594 6.039062 24.78125 5.828125 24.632812 5.71875 Z M 24.632812 5.71875 "/><g clip-rule="nonzero" clip-path="url(#19dc01ea86)"><path style=" stroke:none;fill-rule:nonzero;fill:#000000;fill-opacity:1;" d="M 34.363281 13.3125 L 30.929688 13.3125 C 30.910156 13.261719 30.890625 13.207031 30.871094 13.152344 L 30.453125 13.3125 L 28.472656 13.3125 C 28.285156 13.3125 28.136719 13.464844 28.136719 13.648438 L 28.136719 18.160156 C 28.136719 18.34375 28.285156 18.496094 28.472656 18.496094 L 29.828125 18.496094 L 29.828125 20.027344 C 29.828125 20.167969 29.914062 20.289062 30.042969 20.339844 C 30.082031 20.355469 30.125 20.363281 30.164062 20.363281 C 30.257812 20.363281 30.347656 20.324219 30.414062 20.253906 L 31.023438 19.59375 C 31.007812 19.734375 30.988281 19.875 30.96875 20.011719 L 31.632812 20.113281 C 31.664062 19.914062 31.6875 19.710938 31.710938 19.511719 L 31.152344 19.453125 L 31.539062 19.035156 L 31.75 19.046875 C 31.753906 18.964844 31.761719 18.875 31.765625 18.789062 L 32.039062 18.496094 L 34.363281 18.496094 C 34.550781 18.496094 34.699219 18.34375 34.699219 18.160156 L 34.699219 13.648438 C 34.699219 13.464844 34.550781 13.3125 34.363281 13.3125 Z M 34.027344 17.824219 L 31.890625 17.824219 C 31.796875 17.824219 31.707031 17.863281 31.644531 17.933594 L 30.5 19.167969 L 30.5 18.160156 C 30.5 17.976562 30.351562 17.824219 30.164062 17.824219 L 28.808594 17.824219 L 28.808594 13.984375 L 34.027344 13.984375 Z M 34.027344 17.824219 "/></g><path style=" stroke:none;fill-rule:nonzero;fill:#000000;fill-opacity:1;" d="M 29.496094 17.507812 C 29.671875 17.570312 29.863281 17.480469 29.925781 17.304688 L 30.070312 16.917969 L 30.878906 16.917969 L 31.019531 17.304688 C 31.066406 17.441406 31.195312 17.527344 31.335938 17.527344 C 31.371094 17.527344 31.410156 17.519531 31.449219 17.507812 C 31.625 17.441406 31.714844 17.25 31.648438 17.078125 L 31.632812 17.023438 C 31.785156 17.339844 32.105469 17.554688 32.480469 17.554688 C 32.632812 17.554688 32.777344 17.519531 32.90625 17.453125 C 32.964844 17.5 33.035156 17.527344 33.113281 17.527344 C 33.300781 17.527344 33.453125 17.375 33.453125 17.191406 L 33.453125 14.828125 C 33.453125 14.640625 33.300781 14.492188 33.113281 14.492188 C 32.929688 14.492188 32.777344 14.640625 32.777344 14.828125 L 32.777344 15.726562 C 32.683594 15.695312 32.585938 15.675781 32.480469 15.675781 C 31.960938 15.675781 31.539062 16.097656 31.539062 16.617188 C 31.539062 16.695312 31.546875 16.773438 31.566406 16.847656 L 30.789062 14.710938 C 30.742188 14.578125 30.613281 14.492188 30.472656 14.492188 C 30.332031 14.492188 30.207031 14.578125 30.15625 14.710938 L 29.296875 17.078125 C 29.230469 17.25 29.320312 17.441406 29.496094 17.507812 Z M 32.480469 16.347656 C 32.628906 16.347656 32.75 16.46875 32.75 16.617188 C 32.75 16.765625 32.628906 16.886719 32.480469 16.886719 C 32.332031 16.886719 32.210938 16.765625 32.210938 16.617188 C 32.210938 16.46875 32.332031 16.347656 32.480469 16.347656 Z M 30.472656 15.808594 L 30.632812 16.246094 L 30.3125 16.246094 Z M 30.472656 15.808594 "/><path style=" stroke:none;fill-rule:nonzero;fill:#000000;fill-opacity:1;" d="M 5.824219 16.546875 L 3.96875 15.480469 C 3.867188 15.421875 3.738281 15.421875 3.632812 15.480469 C 3.53125 15.539062 3.464844 15.652344 3.464844 15.769531 L 3.464844 17.90625 C 3.464844 18.027344 3.53125 18.136719 3.632812 18.195312 C 3.6875 18.226562 3.742188 18.242188 3.800781 18.242188 C 3.859375 18.242188 3.917969 18.226562 3.96875 18.195312 L 5.824219 17.128906 C 5.929688 17.070312 5.992188 16.957031 5.992188 16.839844 C 5.992188 16.71875 5.929688 16.609375 5.824219 16.546875 Z M 4.136719 17.324219 L 4.136719 16.351562 L 4.984375 16.839844 Z M 4.136719 17.324219 "/><path style=" stroke:none;fill-rule:nonzero;fill:#000000;fill-opacity:1;" d="M 6.289062 14.527344 L 6.871094 14.527344 L 6.871094 15.050781 L 6.289062 15.050781 Z M 6.289062 14.527344 "/><path style=" stroke:none;fill-rule:nonzero;fill:#000000;fill-opacity:1;" d="M 2.148438 14.527344 L 2.734375 14.527344 L 2.734375 15.050781 L 2.148438 15.050781 Z M 2.148438 14.527344 "/><path style=" stroke:none;fill-rule:nonzero;fill:#000000;fill-opacity:1;" d="M 3.183594 14.527344 L 3.769531 14.527344 L 3.769531 15.050781 L 3.183594 15.050781 Z M 3.183594 14.527344 "/><path style=" stroke:none;fill-rule:nonzero;fill:#000000;fill-opacity:1;" d="M 5.253906 14.527344 L 5.839844 14.527344 L 5.839844 15.050781 L 5.253906 15.050781 Z M 5.253906 14.527344 "/><path style=" stroke:none;fill-rule:nonzero;fill:#000000;fill-opacity:1;" d="M 4.21875 14.527344 L 4.804688 14.527344 L 4.804688 15.050781 L 4.21875 15.050781 Z M 4.21875 14.527344 "/><path style=" stroke:none;fill-rule:nonzero;fill:#000000;fill-opacity:1;" d="M 4.21875 18.664062 L 4.804688 18.664062 L 4.804688 19.183594 L 4.21875 19.183594 Z M 4.21875 18.664062 "/><path style=" stroke:none;fill-rule:nonzero;fill:#000000;fill-opacity:1;" d="M 6.289062 18.664062 L 6.871094 18.664062 L 6.871094 19.183594 L 6.289062 19.183594 Z M 6.289062 18.664062 "/><path style=" stroke:none;fill-rule:nonzero;fill:#000000;fill-opacity:1;" d="M 3.183594 18.664062 L 3.769531 18.664062 L 3.769531 19.183594 L 3.183594 19.183594 Z M 3.183594 18.664062 "/><path style=" stroke:none;fill-rule:nonzero;fill:#000000;fill-opacity:1;" d="M 5.253906 18.664062 L 5.839844 18.664062 L 5.839844 19.183594 L 5.253906 19.183594 Z M 5.253906 18.664062 "/><path style=" stroke:none;fill-rule:nonzero;fill:#000000;fill-opacity:1;" d="M 2.148438 18.664062 L 2.734375 18.664062 L 2.734375 19.183594 L 2.148438 19.183594 Z M 2.148438 18.664062 "/><path style=" stroke:none;fill-rule:nonzero;fill:#000000;fill-opacity:1;" d="M 8.820312 29.152344 C 8.820312 29.316406 8.953125 29.449219 9.117188 29.449219 L 11.957031 29.449219 C 12.121094 29.449219 12.253906 29.316406 12.253906 29.152344 C 12.253906 28.988281 12.121094 28.855469 11.957031 28.855469 L 9.117188 28.855469 C 8.953125 28.855469 8.820312 28.988281 8.820312 29.152344 Z M 8.820312 29.152344 "/><path style=" stroke:none;fill-rule:nonzero;fill:#000000;fill-opacity:1;" d="M 11.957031 29.859375 L 9.117188 29.859375 C 8.953125 29.859375 8.820312 29.992188 8.820312 30.15625 C 8.820312 30.320312 8.953125 30.453125 9.117188 30.453125 L 11.957031 30.453125 C 12.121094 30.453125 12.253906 30.320312 12.253906 30.15625 C 12.253906 29.992188 12.121094 29.859375 11.957031 29.859375 Z M 11.957031 29.859375 "/><path style=" stroke:none;fill-rule:nonzero;fill:#000000;fill-opacity:1;" d="M 11.957031 30.863281 L 9.117188 30.863281 C 8.953125 30.863281 8.820312 30.996094 8.820312 31.160156 C 8.820312 31.324219 8.953125 31.457031 9.117188 31.457031 L 11.957031 31.457031 C 12.121094 31.457031 12.253906 31.324219 12.253906 31.160156 C 12.253906 30.996094 12.121094 30.863281 11.957031 30.863281 Z M 11.957031 30.863281 "/><path style=" stroke:none;fill-rule:nonzero;fill:#000000;fill-opacity:1;" d="M 11.957031 31.867188 L 9.117188 31.867188 C 8.953125 31.867188 8.820312 32 8.820312 32.164062 C 8.820312 32.328125 8.953125 32.460938 9.117188 32.460938 L 11.957031 32.460938 C 12.121094 32.460938 12.253906 32.328125 12.253906 32.164062 C 12.253906 32 12.121094 31.867188 11.957031 31.867188 Z M 11.957031 31.867188 "/><g clip-rule="nonzero" clip-path="url(#0c7289af73)"><path style=" stroke:none;fill-rule:nonzero;fill:#000000;fill-opacity:1;" d="M 31.796875 28.105469 L 30.699219 27.632812 L 31.039062 26.488281 C 31.070312 26.375 31.035156 26.253906 30.949219 26.179688 C 30.859375 26.101562 30.734375 26.085938 30.628906 26.136719 L 28.871094 26.957031 C 28.792969 26.992188 28.734375 27.058594 28.710938 27.140625 L 28.335938 28.410156 L 27.839844 28.640625 C 27.726562 28.445312 27.59375 28.265625 27.441406 28.097656 C 27.480469 28.0625 27.519531 28.023438 27.558594 27.984375 L 27.09375 27.503906 C 27.042969 27.550781 26.988281 27.601562 26.933594 27.652344 C 26.746094 27.515625 26.539062 27.402344 26.320312 27.308594 C 25.925781 27.140625 25.507812 27.058594 25.074219 27.058594 C 24.644531 27.058594 24.222656 27.140625 23.828125 27.308594 C 23.449219 27.46875 23.105469 27.699219 22.8125 27.992188 C 22.519531 28.285156 22.289062 28.625 22.128906 29.007812 C 21.960938 29.398438 21.875 29.816406 21.875 30.246094 C 21.875 30.355469 21.882812 30.464844 21.890625 30.574219 C 21.824219 30.59375 21.757812 30.613281 21.691406 30.632812 L 21.878906 31.277344 C 21.929688 31.261719 21.980469 31.246094 22.03125 31.230469 C 22.058594 31.320312 22.089844 31.40625 22.128906 31.488281 C 22.289062 31.871094 22.519531 32.210938 22.8125 32.503906 C 23.105469 32.796875 23.449219 33.027344 23.828125 33.1875 C 24.222656 33.351562 24.644531 33.4375 25.074219 33.4375 C 25.507812 33.4375 25.925781 33.351562 26.320312 33.1875 C 26.703125 33.027344 27.042969 32.796875 27.335938 32.503906 C 27.632812 32.210938 27.863281 31.871094 28.023438 31.488281 C 28.191406 31.097656 28.273438 30.679688 28.273438 30.246094 C 28.273438 29.878906 28.210938 29.519531 28.089844 29.175781 L 28.585938 28.945312 L 29.804688 29.46875 C 29.84375 29.484375 29.882812 29.492188 29.921875 29.492188 C 29.964844 29.492188 30.007812 29.484375 30.050781 29.464844 L 31.808594 28.644531 C 31.914062 28.59375 31.980469 28.488281 31.976562 28.371094 C 31.976562 28.257812 31.90625 28.152344 31.796875 28.105469 Z M 26.917969 32.085938 C 26.425781 32.574219 25.769531 32.847656 25.074219 32.847656 C 24.378906 32.847656 23.726562 32.574219 23.234375 32.085938 C 22.742188 31.59375 22.46875 30.941406 22.46875 30.246094 C 22.46875 29.554688 22.742188 28.902344 23.234375 28.410156 C 23.726562 27.917969 24.378906 27.648438 25.074219 27.648438 C 25.769531 27.648438 26.425781 27.917969 26.917969 28.410156 C 27.066406 28.558594 27.191406 28.71875 27.300781 28.890625 L 26.871094 29.089844 C 26.789062 28.964844 26.695312 28.847656 26.585938 28.742188 C 26.183594 28.339844 25.644531 28.117188 25.074219 28.117188 C 24.503906 28.117188 23.96875 28.339844 23.5625 28.742188 C 23.160156 29.144531 22.9375 29.679688 22.9375 30.246094 C 22.9375 30.816406 23.160156 31.351562 23.5625 31.753906 C 23.96875 32.15625 24.503906 32.378906 25.074219 32.378906 C 25.644531 32.378906 26.183594 32.15625 26.585938 31.753906 C 26.988281 31.351562 27.210938 30.816406 27.210938 30.246094 C 27.210938 30.035156 27.179688 29.828125 27.121094 29.628906 L 27.550781 29.429688 C 27.636719 29.6875 27.679688 29.964844 27.679688 30.246094 C 27.679688 30.941406 27.410156 31.59375 26.917969 32.085938 Z M 24.828125 30.371094 C 24.878906 30.480469 24.988281 30.542969 25.097656 30.542969 C 25.140625 30.542969 25.183594 30.53125 25.222656 30.515625 L 25.542969 30.367188 C 25.488281 30.574219 25.300781 30.726562 25.074219 30.726562 C 24.808594 30.726562 24.59375 30.511719 24.59375 30.246094 C 24.59375 29.984375 24.808594 29.769531 25.074219 29.769531 C 25.15625 29.769531 25.234375 29.789062 25.300781 29.824219 L 24.972656 29.976562 C 24.824219 30.046875 24.757812 30.222656 24.828125 30.371094 Z M 25.074219 29.175781 C 24.484375 29.175781 24 29.65625 24 30.246094 C 24 30.839844 24.484375 31.320312 25.074219 31.320312 C 25.667969 31.320312 26.148438 30.839844 26.148438 30.246094 C 26.148438 30.191406 26.144531 30.140625 26.136719 30.085938 L 26.574219 29.882812 C 26.601562 30 26.617188 30.121094 26.617188 30.246094 C 26.617188 31.097656 25.925781 31.785156 25.074219 31.785156 C 24.222656 31.785156 23.53125 31.097656 23.53125 30.246094 C 23.53125 29.398438 24.222656 28.710938 25.074219 28.710938 C 25.589844 28.710938 26.042969 28.960938 26.324219 29.347656 L 25.890625 29.550781 C 25.691406 29.320312 25.402344 29.175781 25.074219 29.175781 Z M 29.242188 27.433594 L 30.28125 26.949219 L 30.09375 27.589844 L 29.054688 28.074219 Z M 29.917969 28.871094 L 29.304688 28.609375 L 30.34375 28.125 L 30.957031 28.386719 Z M 29.917969 28.871094 "/></g><path style=" stroke:none;fill-rule:nonzero;fill:#000000;fill-opacity:1;" d="M 21.984375 25.753906 C 21.984375 25.558594 21.824219 25.402344 21.628906 25.402344 L 20.054688 25.402344 L 20.054688 23.949219 L 25.613281 23.949219 C 25.808594 23.949219 25.96875 23.789062 25.96875 23.59375 L 25.96875 12.453125 C 25.96875 12.257812 25.808594 12.097656 25.613281 12.097656 L 10.601562 12.097656 C 10.40625 12.097656 10.246094 12.257812 10.246094 12.453125 L 10.246094 23.59375 C 10.246094 23.789062 10.40625 23.949219 10.601562 23.949219 L 16.160156 23.949219 L 16.160156 25.402344 L 14.585938 25.402344 C 14.390625 25.402344 14.230469 25.558594 14.230469 25.753906 C 14.230469 25.949219 14.390625 26.109375 14.585938 26.109375 L 21.628906 26.109375 C 21.824219 26.109375 21.984375 25.949219 21.984375 25.753906 Z M 10.957031 12.804688 L 25.261719 12.804688 L 25.261719 21.175781 L 10.957031 21.175781 Z M 19.34375 25.402344 L 16.871094 25.402344 L 16.871094 23.949219 L 19.34375 23.949219 Z M 19.699219 23.226562 L 16.515625 23.226562 C 16.480469 23.226562 16.449219 23.234375 16.417969 23.242188 L 10.957031 23.242188 L 10.957031 21.882812 L 25.261719 21.882812 L 25.261719 23.242188 L 19.796875 23.242188 C 19.765625 23.234375 19.734375 23.226562 19.699219 23.226562 Z M 19.699219 23.226562 "/><path style=" stroke:none;fill-rule:nonzero;fill:#000000;fill-opacity:1;" d="M 7.058594 10.859375 L 6.5 10.488281 C 6.390625 10.648438 6.285156 10.8125 6.1875 10.976562 L 6.761719 11.324219 C 6.855469 11.167969 6.957031 11.011719 7.058594 10.859375 Z M 7.058594 10.859375 "/><path style=" stroke:none;fill-rule:nonzero;fill:#000000;fill-opacity:1;" d="M 8.9375 8.625 L 8.472656 8.140625 C 8.332031 8.273438 8.195312 8.410156 8.0625 8.546875 L 8.546875 9.011719 C 8.671875 8.882812 8.804688 8.75 8.9375 8.625 Z M 8.9375 8.625 "/><path style=" stroke:none;fill-rule:nonzero;fill:#000000;fill-opacity:1;" d="M 9.667969 7.980469 L 9.238281 7.460938 C 9.089844 7.582031 8.941406 7.710938 8.800781 7.839844 L 9.246094 8.339844 C 9.382812 8.214844 9.523438 8.09375 9.667969 7.980469 Z M 9.667969 7.980469 "/><path style=" stroke:none;fill-rule:nonzero;fill:#000000;fill-opacity:1;" d="M 6.101562 12.558594 L 5.492188 12.273438 C 5.410156 12.449219 5.332031 12.625 5.257812 12.804688 L 5.878906 13.0625 C 5.949219 12.894531 6.023438 12.722656 6.101562 12.558594 Z M 6.101562 12.558594 "/><path style=" stroke:none;fill-rule:nonzero;fill:#000000;fill-opacity:1;" d="M 8.253906 9.324219 L 7.757812 8.875 C 7.628906 9.015625 7.5 9.164062 7.375 9.3125 L 7.894531 9.738281 C 8.011719 9.597656 8.132812 9.457031 8.253906 9.324219 Z M 8.253906 9.324219 "/><path style=" stroke:none;fill-rule:nonzero;fill:#000000;fill-opacity:1;" d="M 6.546875 11.691406 L 5.960938 11.363281 C 5.867188 11.53125 5.777344 11.703125 5.6875 11.875 L 6.289062 12.175781 C 6.371094 12.015625 6.457031 11.851562 6.546875 11.691406 Z M 6.546875 11.691406 "/><path style=" stroke:none;fill-rule:nonzero;fill:#000000;fill-opacity:1;" d="M 13.003906 5.984375 L 12.746094 5.367188 C 12.570312 5.441406 12.390625 5.515625 12.214844 5.597656 L 12.496094 6.207031 C 12.664062 6.128906 12.835938 6.054688 13.003906 5.984375 Z M 13.003906 5.984375 "/><path style=" stroke:none;fill-rule:nonzero;fill:#000000;fill-opacity:1;" d="M 14.855469 5.382812 L 14.695312 4.730469 C 14.507812 4.777344 14.320312 4.828125 14.136719 4.882812 L 14.324219 5.527344 C 14.5 5.472656 14.675781 5.425781 14.855469 5.382812 Z M 14.855469 5.382812 "/><path style=" stroke:none;fill-rule:nonzero;fill:#000000;fill-opacity:1;" d="M 12.117188 6.390625 L 11.8125 5.792969 C 11.640625 5.878906 11.46875 5.96875 11.300781 6.0625 L 11.628906 6.648438 C 11.789062 6.558594 11.953125 6.472656 12.117188 6.390625 Z M 12.117188 6.390625 "/><path style=" stroke:none;fill-rule:nonzero;fill:#000000;fill-opacity:1;" d="M 7.628906 10.070312 L 7.097656 9.660156 C 6.980469 9.808594 6.863281 9.964844 6.75 10.121094 L 7.296875 10.511719 C 7.40625 10.363281 7.515625 10.214844 7.628906 10.070312 Z M 7.628906 10.070312 "/><path style=" stroke:none;fill-rule:nonzero;fill:#000000;fill-opacity:1;" d="M 13.917969 5.648438 L 13.710938 5.011719 C 13.527344 5.074219 13.34375 5.136719 13.160156 5.203125 L 13.398438 5.832031 C 13.570312 5.769531 13.746094 5.707031 13.917969 5.648438 Z M 13.917969 5.648438 "/><path style=" stroke:none;fill-rule:nonzero;fill:#000000;fill-opacity:1;" d="M 10.441406 7.390625 L 10.054688 6.84375 C 9.898438 6.953125 9.742188 7.066406 9.589844 7.183594 L 10 7.714844 C 10.144531 7.605469 10.292969 7.496094 10.441406 7.390625 Z M 10.441406 7.390625 "/><path style=" stroke:none;fill-rule:nonzero;fill:#000000;fill-opacity:1;" d="M 11.261719 6.859375 L 10.914062 6.285156 C 10.75 6.382812 10.585938 6.484375 10.425781 6.589844 L 10.792969 7.152344 C 10.945312 7.050781 11.105469 6.953125 11.261719 6.859375 Z M 11.261719 6.859375 "/><g clip-rule="nonzero" clip-path="url(#72c3c624e3)"><path style=" stroke:none;fill-rule:nonzero;fill:#000000;fill-opacity:1;" d="M 15.351562 5.273438 C 15.574219 5.761719 16.054688 6.113281 16.617188 6.160156 L 16.617188 8.152344 C 16.617188 8.601562 16.984375 8.964844 17.4375 8.964844 L 17.515625 8.964844 C 17.96875 8.964844 18.332031 8.601562 18.332031 8.152344 L 18.332031 6.164062 L 18.941406 6.164062 C 18.957031 6.167969 18.96875 6.171875 18.980469 6.175781 C 19.953125 6.363281 20.851562 6.816406 21.585938 7.476562 L 21.976562 7.832031 C 22.042969 7.890625 22.121094 7.917969 22.203125 7.917969 C 22.25 7.917969 22.296875 7.910156 22.339844 7.890625 C 22.460938 7.835938 22.539062 7.714844 22.539062 7.582031 L 22.539062 5.605469 C 22.9375 5.464844 23.226562 5.085938 23.226562 4.640625 C 23.226562 4.199219 22.9375 3.820312 22.539062 3.679688 L 22.539062 1.691406 C 22.539062 1.558594 22.460938 1.4375 22.339844 1.386719 C 22.21875 1.332031 22.078125 1.355469 21.976562 1.441406 L 21.585938 1.796875 C 20.855469 2.460938 19.953125 2.910156 18.980469 3.101562 C 18.957031 3.105469 18.933594 3.113281 18.910156 3.125 L 16.738281 3.125 C 15.90625 3.125 15.230469 3.789062 15.214844 4.617188 C 15.1875 4.621094 15.160156 4.625 15.136719 4.632812 L 15.273438 5.289062 C 15.300781 5.28125 15.324219 5.277344 15.351562 5.273438 Z M 22.539062 4.59375 C 22.539062 4.582031 22.542969 4.566406 22.542969 4.554688 L 22.542969 4.277344 C 22.640625 4.367188 22.703125 4.5 22.703125 4.640625 C 22.703125 4.785156 22.640625 4.917969 22.542969 5.007812 L 22.542969 4.722656 C 22.542969 4.707031 22.539062 4.695312 22.539062 4.679688 Z M 19.382812 4.722656 L 19.382812 3.699219 C 20.296875 3.476562 21.148438 3.046875 21.867188 2.441406 L 21.867188 4.511719 C 21.867188 4.527344 21.867188 4.539062 21.867188 4.554688 L 21.867188 4.722656 C 21.867188 4.734375 21.867188 4.75 21.867188 4.761719 L 21.867188 6.832031 C 21.148438 6.230469 20.296875 5.800781 19.382812 5.578125 Z M 17.660156 8.152344 C 17.660156 8.230469 17.597656 8.296875 17.515625 8.296875 L 17.4375 8.296875 C 17.355469 8.296875 17.289062 8.230469 17.289062 8.152344 L 17.289062 6.167969 L 17.660156 6.167969 Z M 16.738281 3.792969 L 18.707031 3.792969 L 18.707031 4.554688 C 18.707031 4.5625 18.710938 4.574219 18.710938 4.585938 L 18.710938 4.691406 C 18.710938 4.699219 18.707031 4.710938 18.707031 4.722656 L 18.707031 5.496094 L 16.738281 5.496094 C 16.269531 5.496094 15.886719 5.113281 15.886719 4.644531 C 15.886719 4.175781 16.269531 3.792969 16.738281 3.792969 Z M 16.738281 3.792969 "/></g><path style=" stroke:none;fill-rule:nonzero;fill:#000000;fill-opacity:1;" d="M 5.164062 20.824219 L 4.507812 20.964844 C 4.550781 21.152344 4.59375 21.34375 4.644531 21.535156 L 5.292969 21.367188 C 5.246094 21.1875 5.203125 21.003906 5.164062 20.824219 Z M 5.164062 20.824219 "/><path style=" stroke:none;fill-rule:nonzero;fill:#000000;fill-opacity:1;" d="M 6.109375 23.621094 L 5.5 23.902344 C 5.582031 24.082031 5.667969 24.257812 5.757812 24.429688 L 6.355469 24.121094 C 6.269531 23.957031 6.1875 23.789062 6.109375 23.621094 Z M 6.109375 23.621094 "/><path style=" stroke:none;fill-rule:nonzero;fill:#000000;fill-opacity:1;" d="M 5.410156 21.777344 L 4.761719 21.96875 C 4.820312 22.15625 4.878906 22.34375 4.941406 22.527344 L 5.578125 22.308594 C 5.519531 22.132812 5.460938 21.957031 5.410156 21.777344 Z M 5.410156 21.777344 "/><path style=" stroke:none;fill-rule:nonzero;fill:#000000;fill-opacity:1;" d="M 5.722656 22.710938 L 5.09375 22.949219 C 5.164062 23.132812 5.238281 23.3125 5.3125 23.492188 L 5.933594 23.230469 C 5.859375 23.058594 5.789062 22.886719 5.722656 22.710938 Z M 5.722656 22.710938 "/><path style=" stroke:none;fill-rule:nonzero;fill:#000000;fill-opacity:1;" d="M 7.078125 25.335938 L 6.519531 25.707031 C 6.625 25.871094 6.738281 26.03125 6.855469 26.1875 L 7.398438 25.792969 C 7.289062 25.644531 7.179688 25.488281 7.078125 25.335938 Z M 7.078125 25.335938 "/><path style=" stroke:none;fill-rule:nonzero;fill:#000000;fill-opacity:1;" d="M 7.65625 26.132812 L 7.128906 26.546875 C 7.246094 26.699219 7.371094 26.851562 7.5 27 L 8.011719 26.566406 C 7.890625 26.425781 7.769531 26.28125 7.65625 26.132812 Z M 7.65625 26.132812 "/><path style=" stroke:none;fill-rule:nonzero;fill:#000000;fill-opacity:1;" d="M 6.558594 24.496094 L 5.972656 24.824219 C 6.070312 24.996094 6.171875 25.164062 6.273438 25.328125 L 6.84375 24.976562 C 6.746094 24.816406 6.652344 24.65625 6.558594 24.496094 Z M 6.558594 24.496094 "/><g clip-rule="nonzero" clip-path="url(#2b2a97ea25)"><path style=" stroke:none;fill-rule:nonzero;fill:#000000;fill-opacity:1;" d="M 5.058594 20.269531 L 6.898438 20.269531 C 7.511719 20.269531 8.011719 19.769531 8.011719 19.15625 L 8.011719 14.519531 C 8.011719 13.90625 7.511719 13.410156 6.898438 13.410156 L 5.601562 13.410156 L 5.09375 13.21875 C 5.070312 13.28125 5.046875 13.34375 5.023438 13.410156 L 2.246094 13.410156 C 1.632812 13.410156 1.132812 13.90625 1.132812 14.519531 L 1.132812 19.15625 C 1.132812 19.769531 1.632812 20.269531 2.246094 20.269531 L 4.378906 20.269531 C 4.390625 20.351562 4.40625 20.4375 4.421875 20.519531 L 5.082031 20.402344 C 5.074219 20.359375 5.066406 20.3125 5.058594 20.269531 Z M 2.246094 19.597656 C 2.003906 19.597656 1.804688 19.398438 1.804688 19.15625 L 1.804688 14.519531 C 1.804688 14.277344 2.003906 14.078125 2.246094 14.078125 L 6.898438 14.078125 C 7.140625 14.078125 7.339844 14.277344 7.339844 14.519531 L 7.339844 14.527344 L 7.324219 14.527344 L 7.324219 15.050781 L 7.339844 15.050781 L 7.339844 18.664062 L 7.324219 18.664062 L 7.324219 19.183594 L 7.339844 19.183594 C 7.324219 19.414062 7.132812 19.597656 6.898438 19.597656 Z M 2.246094 19.597656 "/></g><path style=" stroke:none;fill-rule:nonzero;fill:#000000;fill-opacity:1;" d="M 17.996094 31.160156 C 17.914062 31.160156 17.832031 31.160156 17.75 31.160156 L 17.738281 31.828125 C 17.824219 31.828125 17.910156 31.832031 17.996094 31.832031 C 18.105469 31.832031 18.21875 31.828125 18.332031 31.828125 L 18.316406 31.15625 C 18.210938 31.160156 18.101562 31.160156 17.996094 31.160156 Z M 17.996094 31.160156 "/><path style=" stroke:none;fill-rule:nonzero;fill:#000000;fill-opacity:1;" d="M 20.722656 30.875 L 20.863281 31.53125 C 21.054688 31.492188 21.25 31.445312 21.441406 31.398438 L 21.273438 30.75 C 21.09375 30.796875 20.90625 30.839844 20.722656 30.875 Z M 20.722656 30.875 "/><path style=" stroke:none;fill-rule:nonzero;fill:#000000;fill-opacity:1;" d="M 19.742188 31.046875 L 19.832031 31.710938 C 20.027344 31.683594 20.222656 31.652344 20.417969 31.621094 L 20.300781 30.960938 C 20.113281 30.992188 19.925781 31.019531 19.742188 31.046875 Z M 19.742188 31.046875 "/><path style=" stroke:none;fill-rule:nonzero;fill:#000000;fill-opacity:1;" d="M 15.652344 31.632812 C 15.847656 31.667969 16.042969 31.695312 16.238281 31.71875 L 16.324219 31.054688 C 16.136719 31.03125 15.949219 31.003906 15.765625 30.972656 Z M 15.652344 31.632812 "/><path style=" stroke:none;fill-rule:nonzero;fill:#000000;fill-opacity:1;" d="M 16.691406 31.769531 C 16.886719 31.789062 17.085938 31.800781 17.285156 31.8125 L 17.316406 31.144531 C 17.132812 31.132812 16.941406 31.121094 16.753906 31.101562 Z M 16.691406 31.769531 "/><path style=" stroke:none;fill-rule:nonzero;fill:#000000;fill-opacity:1;" d="M 14.628906 31.417969 C 14.820312 31.464844 15.011719 31.507812 15.207031 31.550781 L 15.339844 30.894531 C 15.15625 30.855469 14.972656 30.8125 14.792969 30.769531 Z M 14.628906 31.417969 "/><path style=" stroke:none;fill-rule:nonzero;fill:#000000;fill-opacity:1;" d="M 18.75 31.140625 L 18.789062 31.808594 C 18.984375 31.796875 19.183594 31.78125 19.378906 31.761719 L 19.3125 31.09375 C 19.125 31.113281 18.9375 31.128906 18.75 31.140625 Z M 18.75 31.140625 "/><path style=" stroke:none;fill-rule:nonzero;fill:#000000;fill-opacity:1;" d="M 13.621094 31.125 C 13.808594 31.1875 14 31.246094 14.1875 31.300781 L 14.371094 30.65625 C 14.191406 30.605469 14.011719 30.546875 13.835938 30.488281 Z M 13.621094 31.125 "/><g clip-rule="nonzero" clip-path="url(#61860b34cc)"><path style=" stroke:none;fill-rule:nonzero;fill:#000000;fill-opacity:1;" d="M 13.265625 28.417969 C 13.265625 28.339844 13.234375 28.265625 13.179688 28.210938 L 11.8125 26.84375 C 11.804688 26.839844 11.800781 26.835938 11.796875 26.832031 C 11.796875 26.832031 11.792969 26.828125 11.792969 26.828125 C 11.789062 26.824219 11.785156 26.820312 11.78125 26.816406 C 11.777344 26.816406 11.777344 26.816406 11.777344 26.816406 C 11.773438 26.8125 11.769531 26.808594 11.761719 26.804688 C 11.761719 26.804688 11.757812 26.804688 11.757812 26.804688 C 11.753906 26.800781 11.746094 26.796875 11.742188 26.792969 C 11.734375 26.789062 11.730469 26.789062 11.722656 26.785156 C 11.722656 26.785156 11.722656 26.785156 11.71875 26.78125 C 11.714844 26.78125 11.707031 26.777344 11.703125 26.777344 C 11.695312 26.773438 11.691406 26.773438 11.683594 26.769531 C 11.683594 26.769531 11.679688 26.769531 11.679688 26.769531 C 11.671875 26.765625 11.667969 26.765625 11.660156 26.765625 C 11.652344 26.761719 11.648438 26.761719 11.640625 26.761719 C 11.640625 26.761719 11.636719 26.761719 11.636719 26.761719 C 11.628906 26.757812 11.625 26.757812 11.621094 26.757812 C 11.617188 26.757812 11.617188 26.757812 11.617188 26.757812 C 11.613281 26.757812 11.605469 26.757812 11.601562 26.757812 L 8.101562 26.757812 C 7.9375 26.757812 7.804688 26.890625 7.804688 27.054688 L 7.804688 27.332031 L 7.796875 27.339844 C 7.800781 27.339844 7.804688 27.34375 7.804688 27.347656 L 7.804688 33.140625 C 7.804688 33.300781 7.9375 33.433594 8.101562 33.433594 L 12.96875 33.433594 C 13.132812 33.433594 13.265625 33.300781 13.265625 33.140625 L 13.265625 30.773438 L 13.425781 30.34375 C 13.371094 30.324219 13.320312 30.304688 13.265625 30.285156 Z M 11.898438 27.773438 L 12.1875 28.0625 L 11.898438 28.0625 Z M 12.671875 32.84375 L 8.398438 32.84375 L 8.398438 27.351562 L 11.304688 27.351562 L 11.304688 28.359375 C 11.304688 28.523438 11.4375 28.65625 11.601562 28.65625 L 12.671875 28.65625 Z M 12.671875 32.84375 "/></g><path style=" stroke:none;fill-rule:nonzero;fill:#000000;fill-opacity:1;" d="M 30.171875 22.953125 L 30.796875 23.203125 C 30.871094 23.015625 30.941406 22.824219 31.007812 22.636719 L 30.375 22.414062 C 30.3125 22.59375 30.242188 22.777344 30.171875 22.953125 Z M 30.171875 22.953125 "/><path style=" stroke:none;fill-rule:nonzero;fill:#000000;fill-opacity:1;" d="M 29.265625 24.773438 L 29.84375 25.117188 C 29.945312 24.945312 30.046875 24.769531 30.144531 24.589844 L 29.550781 24.273438 C 29.460938 24.441406 29.363281 24.609375 29.265625 24.773438 Z M 29.265625 24.773438 "/><path style=" stroke:none;fill-rule:nonzero;fill:#000000;fill-opacity:1;" d="M 29.753906 23.882812 L 30.355469 24.179688 C 30.445312 24 30.53125 23.816406 30.613281 23.632812 L 30 23.359375 C 29.921875 23.535156 29.839844 23.710938 29.753906 23.882812 Z M 29.753906 23.882812 "/><path style=" stroke:none;fill-rule:nonzero;fill:#000000;fill-opacity:1;" d="M 30.515625 21.996094 L 31.15625 22.195312 C 31.214844 22.003906 31.273438 21.808594 31.324219 21.613281 L 30.675781 21.441406 C 30.625 21.628906 30.570312 21.8125 30.515625 21.996094 Z M 30.515625 21.996094 "/><path style=" stroke:none;fill-rule:nonzero;fill:#000000;fill-opacity:1;" d="M 31.558594 20.570312 L 30.898438 20.449219 C 30.863281 20.636719 30.824219 20.828125 30.78125 21.011719 L 31.4375 21.164062 C 31.480469 20.96875 31.523438 20.769531 31.558594 20.570312 Z M 31.558594 20.570312 "/><path style=" stroke:none;fill-rule:nonzero;fill:#000000;fill-opacity:1;" d="M 28.710938 25.625 L 29.257812 26.015625 C 29.375 25.851562 29.488281 25.679688 29.597656 25.511719 L 29.03125 25.148438 C 28.929688 25.308594 28.820312 25.472656 28.710938 25.625 Z M 28.710938 25.625 "/><path style=" stroke:none;fill-rule:nonzero;fill:#000000;fill-opacity:1;" d="M 28.089844 26.433594 L 28.605469 26.863281 C 28.734375 26.707031 28.863281 26.546875 28.984375 26.386719 L 28.449219 25.984375 C 28.332031 26.136719 28.210938 26.285156 28.089844 26.433594 Z M 28.089844 26.433594 "/><path style=" stroke:none;fill-rule:nonzero;fill:#000000;fill-opacity:1;" d="M 27.40625 27.191406 L 27.890625 27.65625 C 28.03125 27.511719 28.167969 27.363281 28.300781 27.214844 L 27.800781 26.769531 C 27.671875 26.910156 27.539062 27.054688 27.40625 27.191406 Z M 27.40625 27.191406 "/><path style=" stroke:none;fill-rule:nonzero;fill:#000000;fill-opacity:1;" d="M 25.09375 6.296875 C 25.007812 6.246094 24.925781 6.195312 24.839844 6.148438 L 24.507812 6.730469 C 24.585938 6.773438 24.667969 6.820312 24.746094 6.871094 Z M 25.09375 6.296875 "/><path style=" stroke:none;fill-rule:nonzero;fill:#000000;fill-opacity:1;" d="M 29.121094 11.15625 L 29.691406 10.800781 C 29.582031 10.628906 29.46875 10.457031 29.355469 10.289062 L 28.800781 10.671875 C 28.910156 10.828125 29.019531 10.992188 29.121094 11.15625 Z M 29.121094 11.15625 "/><path style=" stroke:none;fill-rule:nonzero;fill:#000000;fill-opacity:1;" d="M 29.632812 12.050781 L 30.230469 11.738281 C 30.136719 11.558594 30.039062 11.378906 29.933594 11.203125 L 29.351562 11.539062 C 29.449219 11.707031 29.542969 11.878906 29.632812 12.050781 Z M 29.632812 12.050781 "/><path style=" stroke:none;fill-rule:nonzero;fill:#000000;fill-opacity:1;" d="M 28.539062 10.308594 L 29.082031 9.90625 C 28.960938 9.746094 28.832031 9.582031 28.707031 9.425781 L 28.183594 9.847656 C 28.304688 9.996094 28.425781 10.152344 28.539062 10.308594 Z M 28.539062 10.308594 "/><path style=" stroke:none;fill-rule:nonzero;fill:#000000;fill-opacity:1;" d="M 30.074219 12.980469 L 30.691406 12.71875 C 30.613281 12.53125 30.527344 12.34375 30.441406 12.160156 L 29.835938 12.449219 C 29.917969 12.625 30 12.800781 30.074219 12.980469 Z M 30.074219 12.980469 "/><path style=" stroke:none;fill-rule:nonzero;fill:#000000;fill-opacity:1;" d="M 26.421875 8.0625 L 26.855469 7.550781 C 26.699219 7.421875 26.539062 7.292969 26.378906 7.167969 L 25.96875 7.699219 C 26.121094 7.816406 26.277344 7.941406 26.421875 8.0625 Z M 26.421875 8.0625 "/><path style=" stroke:none;fill-rule:nonzero;fill:#000000;fill-opacity:1;" d="M 27.1875 8.753906 L 27.660156 8.277344 C 27.511719 8.136719 27.363281 7.996094 27.210938 7.859375 L 26.761719 8.359375 C 26.90625 8.488281 27.050781 8.621094 27.1875 8.753906 Z M 27.1875 8.753906 "/><path style=" stroke:none;fill-rule:nonzero;fill:#000000;fill-opacity:1;" d="M 26 6.886719 C 25.832031 6.769531 25.664062 6.65625 25.492188 6.542969 L 25.125 7.105469 C 25.289062 7.210938 25.449219 7.320312 25.609375 7.433594 Z M 26 6.886719 "/><path style=" stroke:none;fill-rule:nonzero;fill:#000000;fill-opacity:1;" d="M 27.894531 9.503906 L 28.402344 9.066406 C 28.269531 8.910156 28.128906 8.761719 27.988281 8.613281 L 27.503906 9.074219 C 27.636719 9.214844 27.765625 9.359375 27.894531 9.503906 Z M 27.894531 9.503906 "/><path style=" stroke:none;fill-rule:nonzero;fill:#000000;fill-opacity:1;" d="M 21.585938 16.257812 C 21.683594 16.171875 21.714844 16.035156 21.664062 15.914062 L 21.355469 15.175781 C 21.308594 15.054688 21.1875 14.980469 21.058594 14.988281 L 20.234375 15.027344 L 19.980469 14.773438 L 20.019531 13.953125 C 20.027344 13.824219 19.953125 13.703125 19.832031 13.65625 L 19.089844 13.347656 C 18.96875 13.296875 18.832031 13.328125 18.746094 13.425781 L 18.191406 14.035156 L 17.832031 14.035156 L 17.277344 13.425781 C 17.191406 13.328125 17.054688 13.296875 16.933594 13.347656 L 16.191406 13.65625 C 16.070312 13.703125 15.996094 13.824219 16.003906 13.953125 L 16.042969 14.773438 L 15.789062 15.027344 L 14.964844 14.988281 C 14.835938 14.980469 14.714844 15.054688 14.667969 15.175781 L 14.359375 15.914062 C 14.308594 16.035156 14.339844 16.171875 14.4375 16.257812 L 15.046875 16.808594 L 15.046875 17.171875 L 14.4375 17.722656 C 14.339844 17.808594 14.308594 17.945312 14.359375 18.0625 L 14.667969 18.804688 C 14.714844 18.925781 14.835938 19 14.964844 18.992188 L 15.789062 18.953125 L 16.042969 19.207031 L 16.003906 20.027344 C 15.996094 20.15625 16.070312 20.273438 16.191406 20.324219 L 16.933594 20.632812 C 17.054688 20.679688 17.191406 20.648438 17.277344 20.554688 L 17.832031 19.945312 L 18.191406 19.945312 L 18.746094 20.554688 C 18.804688 20.621094 18.886719 20.65625 18.972656 20.65625 C 19.011719 20.65625 19.050781 20.648438 19.089844 20.632812 L 19.832031 20.324219 C 19.953125 20.273438 20.027344 20.15625 20.019531 20.027344 L 19.980469 19.207031 L 20.234375 18.953125 L 21.058594 18.992188 C 21.1875 19 21.308594 18.925781 21.355469 18.804688 L 21.664062 18.0625 C 21.714844 17.945312 21.683594 17.808594 21.585938 17.722656 L 20.976562 17.171875 L 20.976562 16.808594 Z M 20.464844 17.53125 L 21.019531 18.03125 L 20.875 18.375 L 20.132812 18.335938 C 20.042969 18.332031 19.960938 18.363281 19.898438 18.425781 L 19.449219 18.871094 C 19.390625 18.933594 19.359375 19.015625 19.363281 19.101562 L 19.398438 19.84375 L 19.054688 19.988281 L 18.554688 19.4375 C 18.496094 19.371094 18.414062 19.335938 18.328125 19.335938 L 17.695312 19.335938 C 17.609375 19.335938 17.527344 19.371094 17.46875 19.4375 L 16.96875 19.988281 L 16.625 19.84375 L 16.660156 19.101562 C 16.664062 19.015625 16.632812 18.933594 16.574219 18.871094 L 16.125 18.425781 C 16.0625 18.363281 15.980469 18.332031 15.890625 18.335938 L 15.148438 18.375 L 15.003906 18.03125 L 15.558594 17.53125 C 15.621094 17.472656 15.660156 17.390625 15.660156 17.304688 L 15.660156 16.675781 C 15.660156 16.585938 15.621094 16.503906 15.558594 16.449219 L 15.003906 15.949219 L 15.148438 15.605469 L 15.890625 15.644531 C 15.980469 15.648438 16.0625 15.617188 16.125 15.554688 L 16.574219 15.109375 C 16.632812 15.046875 16.664062 14.964844 16.660156 14.878906 L 16.625 14.136719 L 16.96875 13.992188 L 17.46875 14.542969 C 17.527344 14.609375 17.609375 14.644531 17.695312 14.644531 L 18.328125 14.644531 C 18.414062 14.644531 18.496094 14.609375 18.554688 14.542969 L 19.054688 13.992188 L 19.398438 14.136719 L 19.363281 14.878906 C 19.355469 14.964844 19.390625 15.046875 19.449219 15.109375 L 19.898438 15.554688 C 19.960938 15.617188 20.042969 15.648438 20.132812 15.644531 L 20.875 15.605469 L 21.019531 15.949219 L 20.464844 16.449219 C 20.402344 16.503906 20.363281 16.585938 20.363281 16.675781 L 20.363281 17.304688 C 20.363281 17.390625 20.402344 17.472656 20.464844 17.53125 Z M 20.464844 17.53125 "/><path style=" stroke:none;fill-rule:nonzero;fill:#000000;fill-opacity:1;" d="M 18.011719 15.3125 C 17.085938 15.3125 16.332031 16.066406 16.332031 16.988281 C 16.332031 17.914062 17.085938 18.667969 18.011719 18.667969 C 18.9375 18.667969 19.695312 17.914062 19.695312 16.988281 C 19.695312 16.066406 18.9375 15.3125 18.011719 15.3125 Z M 18.011719 18.058594 C 17.421875 18.058594 16.941406 17.578125 16.941406 16.988281 C 16.941406 16.402344 17.421875 15.921875 18.011719 15.921875 C 18.601562 15.921875 19.082031 16.402344 19.082031 16.988281 C 19.082031 17.578125 18.601562 18.058594 18.011719 18.058594 Z M 18.011719 18.058594 "/></g></svg>